custom-analysis
version=1
nRows=6
nColumns=98
inDegrees=no

This file contains tibia displacement and acting force.

Units are S.I. units (seconds, meters, Newtons, ...)
Angles are in degrees.

endheader
time	APT	SIT	knee_angle	aACL_R_force	pACL_R_force	aPCL_R_force	pPCL_R_force	aMCL_R_force	mMCL_R_force	pMCL_R_force	aLCL_R_force	mLCL_R_force	pLCL_R_force	aPCL_L_force	pPCL_L_force	aMCL_L_force	aLCL_L_force	aACL_R_length	pACL_R_length	aPCL_R_length	pPCL_R_length	aMCL_R_length	mMCL_R_length	pMCL_R_length	aLCL_R_length	mLCL_R_length	pLCL_R_length	aPCL_L_length	pPCL_L_length	aMCL_L_length	aLCL_L_length	aACL_R_strain	pACL_R_strain	aPCL_R_strain	pPCL_R_strain	aMCL_R_strain	mMCL_R_strain	pMCL_R_strain	aLCL_R_strain	mLCL_R_strain	pLCL_R_strain	aPCL_L_strain	pPCL_L_strain	aMCL_L_strain	aLCL_L_strain	femur_lat_meniscii_r.femur_lat_r.force.X	femur_lat_meniscii_r.femur_lat_r.force.Y	femur_lat_meniscii_r.femur_lat_r.force.Z	femur_lat_meniscii_r.femur_lat_r.torque.X	femur_lat_meniscii_r.femur_lat_r.torque.Y	femur_lat_meniscii_r.femur_lat_r.torque.Z	femur_lat_meniscii_r.meniscus_lat_r.force.X	femur_lat_meniscii_r.meniscus_lat_r.force.Y	femur_lat_meniscii_r.meniscus_lat_r.force.Z	femur_lat_meniscii_r.meniscus_lat_r.torque.X	femur_lat_meniscii_r.meniscus_lat_r.torque.Y	femur_lat_meniscii_r.meniscus_lat_r.torque.Z	femur_med_meniscii_r.femur_med_r.force.X	femur_med_meniscii_r.femur_med_r.force.Y	femur_med_meniscii_r.femur_med_r.force.Z	femur_med_meniscii_r.femur_med_r.torque.X	femur_med_meniscii_r.femur_med_r.torque.Y	femur_med_meniscii_r.femur_med_r.torque.Z	femur_med_meniscii_r.meniscus_med_r.force.X	femur_med_meniscii_r.meniscus_med_r.force.Y	femur_med_meniscii_r.meniscus_med_r.force.Z	femur_med_meniscii_r.meniscus_med_r.torque.X	femur_med_meniscii_r.meniscus_med_r.torque.Y	femur_med_meniscii_r.meniscus_med_r.torque.Z	femur_med_tibia_r.tibia_upper_r.force.X	femur_med_tibia_r.tibia_upper_r.force.Y	femur_med_tibia_r.tibia_upper_r.force.Z	femur_med_tibia_r.tibia_upper_r.torque.X	femur_med_tibia_r.tibia_upper_r.torque.Y	femur_med_tibia_r.tibia_upper_r.torque.Z	femur_med_tibia_r.femur_med_r.force.X	femur_med_tibia_r.femur_med_r.force.Y	femur_med_tibia_r.femur_med_r.force.Z	femur_med_tibia_r.femur_med_r.torque.X	femur_med_tibia_r.femur_med_r.torque.Y	femur_med_tibia_r.femur_med_r.torque.Z	femur_lat_tibia_r.tibia_upper_r.force.X	femur_lat_tibia_r.tibia_upper_r.force.Y	femur_lat_tibia_r.tibia_upper_r.force.Z	femur_lat_tibia_r.tibia_upper_r.torque.X	femur_lat_tibia_r.tibia_upper_r.torque.Y	femur_lat_tibia_r.tibia_upper_r.torque.Z	femur_lat_tibia_r.femur_lat_r.force.X	femur_lat_tibia_r.femur_lat_r.force.Y	femur_lat_tibia_r.femur_lat_r.force.Z	femur_lat_tibia_r.femur_lat_r.torque.X	femur_lat_tibia_r.femur_lat_r.torque.Y	femur_lat_tibia_r.femur_lat_r.torque.Z	femur_lat_meniscii_force_r	femur_med_meniscii_force_r	femur_lat_tibia_force_r	femur_med_tibia_force_r
      0.26439507	      0.00251118	     -0.00016172	     20.00008554	     46.39108386	     35.63421261	      0.00000000	      0.00000000	      0.00000000	      0.00000000	      0.66238528	      5.82818946	      0.00000000	      0.00000000	      0.00000000	      0.00000000	      0.00000001	      0.00000000	      0.03339775	      0.02673568	      0.03054687	      0.02982800	      0.05667156	      0.05961382	      0.05981618	      0.05617707	      0.05356644	      0.05050478	      0.01525851	      0.01651186	      0.06550154	      0.04489616	      0.07715569	      0.06692195	     -0.01763701	     -0.00200083	     -0.05589892	     -0.00300499	      0.01852920	      0.00357048	     -0.04886770	     -0.03511327	      0.00000079	     -0.32847694	      0.00000060	     -0.00000086	     47.42196796	     74.47774525	     16.76214006	     -8.73438012	      1.15066536	     19.62682203	    -47.42196796	    -74.47774525	    -16.76214006	      2.45039700	     -1.35899565	     -0.92307563	     32.76321394	     39.53660123	     11.84621755	     -3.96197559	     -0.81166770	     13.61686388	    -32.76321394	    -39.53660123	    -11.84621755	     -0.50398791	      0.66586430	     -0.77868258	     -6.40953419	    -16.25200011	     -3.52410790	     -0.25636616	      0.14541182	     -0.20396712	      6.40953419	     16.25200011	      3.52410790	     -1.06366250	     -0.18243833	      2.77554660	      0.00000000	      0.00000000	      0.00000000	      0.00000000	      0.00000000	      0.00000000	      0.00000000	      0.00000000	      0.00000000	      0.00000000	      0.00000000	      0.00000000	     89.87072339	     52.69633663	      0.00000000	     17.82214837
      0.26679642	      0.00251395	     -0.00016512	     20.00008554	     46.59908286	     35.90214042	      0.00000000	      0.00000000	      0.00000000	      0.00000000	      0.65866394	      5.70312083	      0.00000000	      0.00000000	      0.00000000	      0.00000000	      0.00000001	      0.00000000	      0.03340778	      0.02674710	      0.03054721	      0.02982723	      0.05666489	      0.05960716	      0.05980976	      0.05619182	      0.05358148	      0.05051973	      0.01525851	      0.01651186	      0.06550154	      0.04489616	      0.07747905	      0.06737764	     -0.01762617	     -0.00202648	     -0.05600991	     -0.00311642	      0.01841989	      0.00383400	     -0.04860060	     -0.03482752	      0.00000079	     -0.32847694	      0.00000060	     -0.00000086	     46.92665972	     74.00888945	     16.86378396	     -8.76549260	      1.13925913	     19.41951075	    -46.92665972	    -74.00888945	    -16.86378396	      2.44141184	     -1.34727652	     -0.90865206	     33.00601670	     39.78688158	     11.92383895	     -3.98869264	     -0.81644802	     13.71679414	    -33.00601670	    -39.78688158	    -11.92383895	     -0.50669402	      0.66969684	     -0.78357862	     -6.77814586	    -17.42814510	     -3.81532863	     -0.27369435	      0.15342528	     -0.21453112	      6.77814586	     17.42814510	      3.81532863	     -1.15579061	     -0.19319374	      2.93575099	      0.00000000	      0.00000000	      0.00000000	      0.00000000	      0.00000000	      0.00000000	      0.00000000	      0.00000000	      0.00000000	      0.00000000	      0.00000000	      0.00000000	     89.24020573	     53.05253076	      0.00000000	     19.08507887
      0.27105028	      0.00251800	     -0.00017160	     20.00008554	     47.20249397	     36.63908032	      0.00000000	      0.00000000	      0.00000000	      0.00000000	      0.92471571	      5.84711099	      0.00000000	      0.00000000	      0.00000000	      0.00000000	      0.00000001	      0.00000000	      0.03342457	      0.02676620	      0.03054914	      0.02982726	      0.05665433	      0.05959659	      0.05979960	      0.05621819	      0.05360835	      0.05054647	      0.01525851	      0.01651186	      0.06550154	      0.04489616	      0.07802073	      0.06814013	     -0.01756400	     -0.00202553	     -0.05618593	     -0.00329322	      0.01824687	      0.00430522	     -0.04812350	     -0.03431664	      0.00000079	     -0.32847694	      0.00000060	     -0.00000086	     45.87524833	     72.70028274	     16.69055943	     -8.66034793	      1.11371794	     18.98203238	    -45.87524833	    -72.70028274	    -16.69055943	      2.39965149	     -1.31827436	     -0.88303969	     33.36065875	     40.14540944	     12.03537512	     -4.02692678	     -0.82385425	     13.86289558	    -33.36065875	    -40.14540944	    -12.03537512	     -0.51085552	      0.67581936	     -0.79090351	     -7.56723711	    -19.48709013	     -4.22096634	     -0.30858245	      0.17164298	     -0.23928951	      7.56723711	     19.48709013	      4.22096634	     -1.27263195	     -0.21572994	      3.27758687	      0.00000000	      0.00000000	      0.00000000	      0.00000000	      0.00000000	      0.00000000	      0.00000000	      0.00000000	      0.00000000	      0.00000000	      0.00000000	      0.00000000	     87.56965396	     53.56713270	      0.00000000	     21.32665741
      0.27534806	      0.00252120	     -0.00017912	     20.00008554	     47.78615981	     37.34903004	      0.00000000	      0.00000000	      0.00000000	      0.00000000	      1.17300421	      5.96985821	      0.00000000	      0.00000000	      0.00000000	      0.00000000	      0.00000001	      0.00000000	      0.03344129	      0.02678516	      0.03055256	      0.02982883	      0.05664538	      0.05958764	      0.05979103	      0.05624515	      0.05363577	      0.05057377	      0.01525851	      0.01651186	      0.06550154	      0.04489616	      0.07855993	      0.06889672	     -0.01745396	     -0.00197291	     -0.05633498	     -0.00344280	      0.01810088	      0.00478671	     -0.04763674	     -0.03379517	      0.00000079	     -0.32847694	      0.00000060	     -0.00000086	     44.85026139	     71.38332726	     16.62171812	     -8.60083484	      1.09042923	     18.55548837	    -44.85026139	    -71.38332726	    -16.62171812	      2.36347939	     -1.29229105	     -0.85836532	     33.52223153	     40.33022813	     12.09923136	     -4.04971697	     -0.82652159	     13.92852923	    -33.52223153	    -40.33022813	    -12.09923136	     -0.51253345	      0.67792995	     -0.79302126	     -8.08561923	    -20.84804537	     -4.49228620	     -0.33168984	      0.18366852	     -0.25556516	      8.08561923	     20.84804537	      4.49228620	     -1.35111684	     -0.23060026	      3.50223481	      0.00000000	      0.00000000	      0.00000000	      0.00000000	      0.00000000	      0.00000000	      0.00000000	      0.00000000	      0.00000000	      0.00000000	      0.00000000	      0.00000000	     85.92675294	     53.82061601	      0.00000000	     22.80786858
      0.27577784	      0.00252150	     -0.00017989	     20.00008554	     47.82611228	     37.40354395	      0.00000000	      0.00000000	      0.00000000	      0.00000000	      1.08550174	      5.75255883	      0.00000000	      0.00000000	      0.00000000	      0.00000000	      0.00000001	      0.00000000	      0.03344292	      0.02678701	      0.03055296	      0.02982905	      0.05664456	      0.05958682	      0.05979024	      0.05624783	      0.05363849	      0.05057649	      0.01525851	      0.01651186	      0.06550154	      0.04489616	      0.07861265	      0.06897050	     -0.01744136	     -0.00196582	     -0.05634869	     -0.00345656	      0.01808749	      0.00483465	     -0.04758828	     -0.03374325	      0.00000079	     -0.32847694	      0.00000060	     -0.00000086	     44.77622283	     71.26018808	     16.54835838	     -8.56703989	      1.08834125	     18.52478201	    -44.77622283	    -71.26018808	    -16.54835838	      2.35751618	     -1.28951658	     -0.85687785	     33.56017275	     40.35760618	     12.06788101	     -4.03586798	     -0.82749062	     13.94425306	    -33.56017275	    -40.35760618	    -12.06788101	     -0.51434816	      0.67907039	     -0.79398047	     -8.13459726	    -20.96950420	     -4.51192986	     -0.33394775	      0.18482890	     -0.25712962	      8.13459726	     20.96950420	      4.51192986	     -1.35617731	     -0.23198602	      3.52343659	      0.00000000	      0.00000000	      0.00000000	      0.00000000	      0.00000000	      0.00000000	      0.00000000	      0.00000000	      0.00000000	      0.00000000	      0.00000000	      0.00000000	     85.77163110	     53.85773226	      0.00000000	     22.94012402
      0.27643175	      0.00252198	     -0.00018100	     20.00008554	     47.88521829	     37.48077608	      0.00000000	      0.00000000	      0.00000000	      0.00000000	      1.07659674	      5.68334102	      0.00000000	      0.00000000	      0.00000000	      0.00000000	      0.00000001	      0.00000000	      0.03344537	      0.02678978	      0.03055347	      0.02982929	      0.05664326	      0.05958552	      0.05978900	      0.05625180	      0.05364253	      0.05058050	      0.01525851	      0.01651186	      0.06550154	      0.04489616	      0.07869146	      0.06908097	     -0.01742475	     -0.00195760	     -0.05637033	     -0.00347828	      0.01806631	      0.00490550	     -0.04751665	     -0.03366650	      0.00000079	     -0.32847694	      0.00000060	     -0.00000086	     46.79868078	     71.31249081	     16.58398869	     -8.58298998	      1.13526273	     19.37473913	    -46.79868078	    -71.31249081	    -16.58398869	      2.35982077	     -1.34046564	     -0.93106763	     33.59328799	     40.39607101	     12.06186041	     -4.03239322	     -0.82815802	     13.95783480	    -33.59328799	    -40.39607101	    -12.06186041	     -0.51549387	      0.67974866	     -0.79455565	     -8.21303057	    -21.17615771	     -4.55287041	     -0.33746699	      0.18664802	     -0.25958499	      8.21303057	     21.17615771	      4.55287041	     -1.36798772	     -0.23423395	      3.55742512	      0.00000000	      0.00000000	      0.00000000	      0.00000000	      0.00000000	      0.00000000	      0.00000000	      0.00000000	      0.00000000	      0.00000000	      0.00000000	      0.00000000	     86.89428376	     53.90584409	      0.00000000	     23.16489057
